<svg xmlns="http://www.w3.org/2000/svg"
  width="1043"
  height="462"
  viewBox="0 0 1043 462">
  <defs>
    <linearGradient id="prefix__a"
      x1="50%"
      x2="53.564%"
      y1="39.246%"
      y2="58.643%">
      <stop offset="0%"
        stop-color="#FFF"/>
      <stop offset="100%"/>
    </linearGradient>
    <linearGradient id="prefix__b"
      x1="49.857%"
      x2="40.492%"
      y1="45.474%"
      y2="55.511%">
      <stop offset="0%"
        stop-color="#00D749"/>
      <stop offset="100%"/>
    </linearGradient>
  </defs>
  <g fill="none"
    fill-rule="evenodd">
    <path fill-rule="nonzero"
      stroke="#FFF"
      d="M133.045 460.627c36.38-106.843 102.018-160.088 196.916-159.736 142.348.529 175.291-163.134 285.328-163.134 110.036 0 68.753-52.565 141.534-52.565 72.78 0 72.78 33.835 143.793 33.835C971.628 119.027 1003.405 0 1042 0"
      transform="translate(1 1)"/>
    <path fill="url(#prefix__a)"
      fill-opacity=".14"
      fill-rule="nonzero"
      d="M1042 457.273H97.268C161.61 352.42 239.586 299.956 331.2 299.88c137.421-.112 172.422-162.585 284.816-162.585 112.394 0 68.63-52.39 141.28-52.39 72.651 0 72.651 33.722 143.536 33.722C971.716 118.627 1003.436 0 1041.962 0"
      opacity=".6"
      transform="translate(1 1)"/>
    <path fill="url(#prefix__b)"
      fill-opacity=".08"
      fill-rule="nonzero"
      d="M1042 460.627H0C142.187 274.079 251.411 189.19 327.67 205.96c114.39 25.157 80.381-62.854 142.494-62.854 62.112 0 61.655 145.048 140.21 145.048 78.553 0 78.553-108.181 145.689-108.181s75.357 71.92 143.406 71.92c68.05 0 65.766 36.261 142.493 36.261"
      transform="translate(1 1)"/>
    <path fill-rule="nonzero"
      stroke="#00FF57"
      d="M0 459.509C136.735 275.3 245.962 190.79 327.683 205.979c122.58 22.784 80.383-62.872 142.498-62.872 62.114 0 61.658 145.09 140.214 145.09 78.557 0 78.557-108.213 145.695-108.213 67.139 0 75.36 71.94 143.412 71.94S965.27 288.198 1042 288.198"
      transform="translate(1 1)"/>
    <g transform="translate(1 1) translate(413.67 95.032)">
      <ellipse cx="53.665"
        cy="49.189"
        fill="#000"
        stroke="#00FF57"
        stroke-width="1.4"
        rx="6.708"
        ry="6.704"/>
      <circle cx="53.665"
        cy="49.193"
        r="3.354"
        fill="#00FF57"/>
      <path fill="#00D749"
        fill-rule="nonzero"
        d="M15.182 1.639C7.335 1.639.973 8.039.973 15.935c0 7.896 6.362 14.296 14.209 14.296 7.847 0 14.208-6.4 14.208-14.296 0-7.895-6.36-14.296-14.208-14.296zm6.516 20.618c-.255.422-.8.554-1.218.297-3.337-2.052-7.536-2.515-12.482-1.379-.477.11-.952-.19-1.06-.67-.11-.48.188-.957.666-1.066 5.412-1.245 10.055-.71 13.8 1.593.417.258.55.806.294 1.226zm1.739-3.892c-.321.525-1.003.69-1.524.367-3.818-2.361-9.64-3.045-14.158-1.666-.586.178-1.205-.154-1.383-.742-.176-.59.154-1.211.739-1.39 5.16-1.576 11.575-.813 15.96 1.9.522.322.686 1.008.366 1.532zm.15-4.053c-4.58-2.737-12.136-2.988-16.508-1.653-.702.214-1.444-.185-1.657-.891-.213-.707.183-1.453.886-1.668 5.019-1.533 13.362-1.237 18.635 1.912.631.377.838 1.198.464 1.832-.373.636-1.191.845-1.82.468zm16.043.524c-2.453-.588-2.89-1.001-2.89-1.87 0-.82.768-1.371 1.909-1.371 1.106 0 2.203.419 3.353 1.281.035.027.078.037.121.03.043-.006.081-.03.106-.066l1.198-1.699c.05-.07.036-.166-.03-.22-1.369-1.105-2.91-1.642-4.712-1.642-2.649 0-4.499 1.6-4.499 3.888 0 2.454 1.596 3.323 4.354 3.994 2.348.544 2.744 1 2.744 1.814 0 .903-.801 1.464-2.09 1.464-1.433 0-2.6-.485-3.907-1.623-.033-.029-.077-.041-.118-.039-.043.004-.083.024-.11.057l-1.343 1.608c-.057.067-.05.167.015.225 1.52 1.365 3.39 2.086 5.408 2.086 2.855 0 4.7-1.569 4.7-3.998.004-2.05-1.216-3.185-4.204-3.916l-.005-.003zm10.666-2.434c-1.238 0-2.252.49-3.09 1.495v-1.13c0-.09-.071-.163-.16-.163H44.85c-.09 0-.16.073-.16.162v12.565c0 .09.07.162.16.162h2.196c.089 0 .16-.073.16-.162v-3.966c.838.945 1.853 1.407 3.09 1.407 2.299 0 4.626-1.78 4.626-5.185.003-3.404-2.325-5.185-4.624-5.185h-.002zm2.071 5.185c0 1.734-1.06 2.943-2.58 2.943-1.502 0-2.635-1.264-2.635-2.943 0-1.678 1.133-2.942 2.635-2.942 1.495 0 2.58 1.237 2.58 2.942zm8.52-5.185c-2.961 0-5.28 2.294-5.28 5.222 0 2.897 2.303 5.167 5.243 5.167 2.971 0 5.298-2.286 5.298-5.204 0-2.907-2.311-5.185-5.262-5.185zm0 8.145c-1.575 0-2.762-1.273-2.762-2.96 0-1.695 1.146-2.925 2.725-2.925 1.585 0 2.78 1.273 2.78 2.962 0 1.694-1.154 2.923-2.743 2.923zm11.583-7.943h-2.417v-2.486c0-.09-.072-.162-.16-.162h-2.197c-.09 0-.161.072-.161.162v2.486h-1.056c-.089 0-.16.073-.16.162v1.9c0 .089.071.162.16.162h1.056v4.915c0 1.986.982 2.993 2.92 2.993.788 0 1.442-.164 2.058-.515.05-.028.081-.083.081-.14v-1.81c0-.055-.029-.108-.076-.137-.048-.03-.108-.032-.157-.007-.423.214-.832.313-1.29.313-.704 0-1.018-.322-1.018-1.044V14.83h2.417c.089 0 .16-.073.16-.162v-1.9c.003-.09-.068-.162-.158-.162h-.002zm8.422.01v-.306c0-.898.343-1.299 1.11-1.299.459 0 .826.092 1.238.23.051.016.104.008.145-.022.043-.031.067-.08.067-.132V9.223c0-.072-.046-.135-.114-.156-.435-.13-.992-.263-1.826-.263-2.029 0-3.101 1.15-3.101 3.323v.468h-1.056c-.088 0-.16.072-.16.161v1.91c0 .089.072.162.16.162h1.056v7.58c0 .09.071.163.16.163h2.197c.088 0 .16-.073.16-.162v-7.58h2.052l3.141 7.578c-.356.797-.707.955-1.186.955-.387 0-.794-.116-1.211-.345-.04-.022-.086-.026-.128-.013-.042.015-.077.047-.095.088l-.745 1.643c-.035.078-.005.169.07.21.777.423 1.479.604 2.346.604 1.622 0 2.518-.76 3.309-2.806l3.81-9.908c.02-.05.014-.106-.016-.15s-.08-.07-.133-.07h-2.286c-.069 0-.13.043-.153.108l-2.342 6.732-2.566-6.737c-.024-.062-.084-.104-.15-.104h-3.753zm-4.883-.01h-2.197c-.088 0-.16.073-.16.162v9.643c0 .09.072.162.16.162h2.197c.089 0 .161-.073.161-.162v-9.642c0-.043-.017-.085-.047-.115s-.071-.047-.114-.047zm-1.086-4.39c-.87 0-1.576.708-1.576 1.584 0 .876.706 1.586 1.576 1.586.87 0 1.576-.71 1.576-1.586 0-.875-.706-1.584-1.575-1.584zm19.244 7.49c-.87 0-1.546-.702-1.546-1.555s.686-1.564 1.554-1.564c.87 0 1.546.703 1.546 1.555 0 .853-.685 1.564-1.554 1.564zm.009-2.964c-.792 0-1.391.633-1.391 1.409 0 .775.595 1.4 1.383 1.4.791 0 1.391-.633 1.391-1.409 0-.775-.595-1.4-1.383-1.4zm.342 1.56l.438.616h-.369l-.394-.565h-.338v.565h-.309v-1.633h.724c.377 0 .625.194.625.521.002.268-.153.431-.375.496h-.002zm-.26-.737h-.403v.517h.402c.201 0 .321-.1.321-.259 0-.168-.12-.258-.32-.258z"/>
    </g>
    <g transform="translate(1 1) translate(703.238 41.367)">
      <ellipse cx="50.311"
        cy="43.599"
        fill="#000"
        stroke="#FFF"
        stroke-width="1.4"
        rx="6.708"
        ry="6.704"/>
      <circle cx="50.311"
        cy="43.603"
        r="3.354"
        fill="#FFF"/>
      <path fill="#FFF"
        fill-rule="nonzero"
        d="M15.238 11.888c-.03-1.82.771-3.235 2.402-4.25-.92-1.31-2.276-2.048-4.07-2.213-.639-.059-1.455.09-2.447.447-1.068.389-1.67.581-1.802.581-.282 0-.823-.163-1.625-.491-.8-.328-1.483-.492-2.047-.492-.949.015-1.832.272-2.647.771-.816.5-1.468 1.182-1.957 2.046C.42 9.361.11 10.643.11 12.134c0 1.341.229 2.682.688 4.025.43 1.282.98 2.408 1.647 3.376.592.88 1.113 1.52 1.557 1.924.638.625 1.29.924 1.958.894.43-.016.993-.172 1.69-.471.652-.282 1.305-.424 1.958-.424.608 0 1.238.141 1.891.424.726.299 1.32.448 1.78.448.682-.03 1.32-.32 1.913-.871.207-.18.434-.426.678-.739.282-.364.553-.737.813-1.118.216-.328.42-.664.612-1.006.205-.369.387-.75.544-1.14.074-.165.14-.332.2-.504.06-.171.119-.346.178-.525-.549-.238-1.046-.574-1.49-1.007-.978-.953-1.475-2.13-1.49-3.532zm16.132 3.986h-.108L26.744 5.751h-3.548v16.333h3.092V11.506h.144l3.775 8.4h2.169l3.763-8.4h.144v10.578h3.128V5.751h-3.524L31.37 15.874zM12.435 3.614c.786-.97 1.18-2.013 1.18-3.131V.26c0-.075-.008-.15-.023-.224-.55.03-1.13.201-1.747.514-.615.313-1.123.709-1.524 1.185-.8.94-1.201 1.946-1.201 3.02v.211c0 .068.007.138.022.214 1.231.118 2.329-.404 3.293-1.566zm63.113 2.137h3.476v16.334h-3.476V5.75zM89.52 8.347c2.06 0 3.15 1.556 3.15 3.231h3.333v-.347c0-3.159-2.457-5.79-6.507-5.79-4.339 0-6.927 2.799-6.927 7.574v1.843c0 4.773 2.564 7.538 6.914 7.538 4.159 0 6.52-2.67 6.52-5.636v-.36h-3.332c0 1.689-1.066 3.089-3.127 3.089-2.11 0-3.452-1.472-3.452-4.62v-1.842c0-3.136 1.355-4.68 3.428-4.68zm-36.817 7.718c0 2.19-1.307 3.399-3.224 3.399-1.93 0-3.236-1.197-3.236-3.399V5.751h-3.451v10.793c0 3.483 2.516 5.852 6.686 5.852 4.16 0 6.687-2.369 6.687-5.852V5.751h-3.462v10.314zm14.96-3.493l-2.48-.55c-1.462-.3-2.229-.934-2.229-1.88 0-1.256 1.043-2.046 2.721-2.046 1.894 0 2.84 1.065 2.924 2.214h3.236c-.036-2.884-2.493-4.894-6.148-4.894-3.463 0-6.196 1.783-6.196 4.99 0 2.776 1.918 4.067 4.219 4.56l2.456.561c1.654.371 2.493.91 2.493 2.022 0 1.27-1.031 2.131-2.96 2.131-2.073 0-3.164-1.077-3.26-2.286h-3.332c.05 2.31 1.607 5.002 6.425 5.002 4.05 0 6.555-1.974 6.555-5.182-.001-2.968-2.026-4.129-4.423-4.642z"/>
    </g>
  </g>
</svg>
